<svg xmlns="http://www.w3.org/2000/svg" viewBox="0 0 431.64 613.75"><defs><style>.cls-1,.cls-10{fill:#0094d1;}.cls-2,.cls-8{fill:#005292;}.cls-3{fill:#fff;}.cls-4{fill:#d3e0ee;}.cls-5{fill:#7ddef8;}.cls-6{fill:#00274b;}.cls-7{fill:#324d5b;}.cls-8{font-size:95.53px;font-family:SFProText-Semibold, SF Pro Text;}.cls-9{font-weight:700;}.cls-10{font-family:Poppins-Light, Poppins;letter-spacing:0em;}</style></defs><title>Asset 1</title><g id="Layer_2" data-name="Layer 2"><g id="Layer_1-2" data-name="Layer 1"><path class="cls-1" d="M297.26,146.42c5.92-16.37,11.76-32.2,17.39-48.19,3-8.59,7.82-12.62,14.58-12.54,2.27,0,4.54.13,6.8,0,1.55-.11,2,.61,2,2.75-.07,14.14,0,28.28,0,42.42,0,10.77,0,21.54,0,32.3,0,2.22-.34,3.07-2,3a60.78,60.78,0,0,0-8.44,0c-1.75.12-2.25-.59-2.24-3.08.08-17.18,0-34.37,0-51.55,0-.64,0-1.29,0-2.06-1,.42-1.07,1.63-1.39,2.51q-9.33,25.72-18.59,51.49c-.74,2.08-1.62,2.77-3.23,2.68a68.14,68.14,0,0,0-9.15,0c-2.06.16-3.14-.7-4.1-3.41-6.3-17.81-12.82-35.48-19.15-53.28-1.55-4.37-3.84-6.26-7.25-6.15-1.85.06-4.26,1.14-5.43-.45s-.42-5.16-.4-7.83c0-3-1-6.84.46-8.75,1.33-1.74,4-.45,6.13-.5a29.33,29.33,0,0,1,4.91.27c5.27.76,8.94,4.71,11.28,11.2q8.25,22.82,16.5,45.65C296.27,143.9,296.69,144.92,297.26,146.42Z"/><path class="cls-1" d="M131.74,280.9c-5.92,16.37-11.76,32.2-17.39,48.19-3,8.59-7.82,12.62-14.58,12.54-2.27,0-4.54-.13-6.8,0-1.55.11-2-.61-2-2.75.07-14.14,0-28.28,0-42.42,0-10.77,0-21.54,0-32.3,0-2.22.34-3.07,2-3a60.78,60.78,0,0,0,8.44,0c1.75-.12,2.25.59,2.24,3.08-.08,17.18,0,34.37,0,51.55,0,.64,0,1.29,0,2.06,1-.42,1.07-1.63,1.39-2.51q9.33-25.72,18.59-51.49c.74-2.08,1.62-2.77,3.23-2.68a68.14,68.14,0,0,0,9.15,0c2.06-.16,3.14.7,4.1,3.41,6.3,17.81,12.82,35.48,19.15,53.28,1.55,4.37,3.84,6.26,7.25,6.15,1.85-.06,4.26-1.14,5.43.45s.42,5.16.4,7.83c0,3,1,6.84-.46,8.75-1.33,1.74-4,.45-6.13.5a29.33,29.33,0,0,1-4.91-.27c-5.27-.76-8.94-4.71-11.28-11.2q-8.25-22.82-16.5-45.65C132.73,283.42,132.31,282.4,131.74,280.9Z"/><path class="cls-2" d="M182,182c0-2.58,0-4.5,0-6.42q0-69.2,0-138.41c0-9.73,1.89-18.76,8.8-26,9.58-10,21.24-13.67,34.63-9.55S246.58,15,248.79,28.82a68.27,68.27,0,0,1,.66,10.7q.06,68.31,0,136.62V182H255q69.88,0,139.75,0c12.17,0,22.66,3.72,30,13.86s8.9,21.51,3.91,33.06-14.09,18.64-26.93,20.12a94.43,94.43,0,0,1-10.72.53q-67.64.05-135.27,0h-6.33v5.59q0,70.1,0,140.2c0,17.53-9,30.2-24.61,34.84-20,6-40.92-8.34-42.52-29.17-.23-3-.35-6-.35-8.94q0-68.08,0-136.17v-6.35h-5.65q-69.65,0-139.3,0c-9.53,0-18.24-2.09-25.69-8.52-9.71-8.38-13.79-22.64-9.81-35.43a33.06,33.06,0,0,1,28-23.08c3.56-.33,7.14-.54,10.71-.55Q108.09,182,176,182Z"/><path class="cls-3" d="M216,279.76a61.82,61.82,0,1,1,61.82-61.82A61.89,61.89,0,0,1,216,279.76Z"/><path class="cls-4" d="M216,160a58,58,0,1,1-58,58,58,58,0,0,1,58-58m0-7.72a65.68,65.68,0,1,0,65.68,65.68A65.68,65.68,0,0,0,216,152.25Z"/><path class="cls-2" d="M214.27,196.09a25.1,25.1,0,1,0,24.9,25.13A25.16,25.16,0,0,0,214.27,196.09Zm17.07,26.08a10.32,10.32,0,0,0-.29,2.15,15.4,15.4,0,0,1-2,5.53,17.43,17.43,0,0,1-18.74,8.28,2,2,0,0,0-.82-.2,16.92,16.92,0,0,1-11.78-10.63,17.22,17.22,0,0,1,9.41-22.05,16.53,16.53,0,0,1,10.84-.92,17.08,17.08,0,0,1,12.73,11.91A15.56,15.56,0,0,1,231.34,222.17Z"/><path class="cls-5" d="M195.31,192.83a7.71,7.71,0,0,1,6.15,3c.25.3.18.43-.14.59a28,28,0,0,0-10.81,9.74c-.16.25-.26.39-.56.11A7.79,7.79,0,0,1,192,193.5,8.29,8.29,0,0,1,195.31,192.83Z"/><path class="cls-5" d="M240.51,200.51a7.71,7.71,0,0,1-2.39,5.68c-.32.3-.47.31-.74-.1a27.72,27.72,0,0,0-10.62-9.57c-.41-.21-.47-.36-.19-.73a7.74,7.74,0,0,1,4.32-2.75,7.83,7.83,0,0,1,9.24,5.12,5.51,5.51,0,0,1,.23.88A8.22,8.22,0,0,1,240.51,200.51Z"/><path class="cls-6" d="M240,184.24a15,15,0,0,0-4.69-1c-.73,0-.73,0-.73-.8,0-.53,0-1.05,0-1.57s.17-.59.62-.59a17.21,17.21,0,0,1,10.47,3.6,18.46,18.46,0,0,1,6.76,9.46,16.56,16.56,0,0,1,.76,4.95c0,.35-.11.48-.47.47-.66,0-1.32,0-2,0-.37,0-.48-.12-.51-.49-.47-6.53-3.77-11.09-9.69-13.8A3.34,3.34,0,0,1,240,184.24Z"/><path class="cls-6" d="M245.18,198.78h-.71c-.71,0-.7,0-.8-.71a10.3,10.3,0,0,0-2-5,9.28,9.28,0,0,0-5.78-3.29l-.5-.09c-.84-.17-.84-.17-.84-1.07,0-.42,0-.85,0-1.27s.2-.67.68-.66a10.39,10.39,0,0,1,4.77,1.22,12.13,12.13,0,0,1,6.58,8.89c.09.5.1,1,.16,1.52,0,.32-.07.47-.42.45S245.55,198.78,245.18,198.78Z"/><path class="cls-7" d="M240,184.24a.82.82,0,0,1,.52.2A.56.56,0,0,1,240,184.24Z"/><path class="cls-5" d="M224.55,211.78c-2.55,2.52-5.08,5.06-7.63,7.58a.92.92,0,0,0-.3,1.05,2.77,2.77,0,0,1-2.79,3.57,2.71,2.71,0,0,1-2.41-1.7,1.85,1.85,0,0,0-1-1.08c-2.4-1.05-4.78-2.14-7.16-3.22-.59-.27-.61-.34-.36-.92s.47-1,.71-1.57.37-.58.9-.35q3.72,1.67,7.44,3.35a1.31,1.31,0,0,0,1.16.07,2,2,0,0,1,1.49-.1.87.87,0,0,0,1-.32q3.57-3.58,7.15-7.14c1-1,.94-.94,1.88,0C224.89,211.36,224.81,211.52,224.55,211.78Z"/><text class="cls-8" transform="translate(10.21 559.87)"><tspan class="cls-9">Medi</tspan><tspan class="cls-10" x="229.34" y="0">Call</tspan></text></g></g></svg>